<?xml version="1.0" encoding="UTF-8"?>
<svg width="90px" height="90px" viewBox="0 0 90 90" version="1.1" xmlns="http://www.w3.org/2000/svg" xmlns:xlink="http://www.w3.org/1999/xlink" style="background: #FFFFFF;">
    <!-- Generator: Sketch 49.2 (51160) - http://www.bohemiancoding.com/sketch -->
    <title>app-icon</title>
    <desc>Created with Sketch.</desc>
    <defs/>
    <g id="app-icon" stroke="none" stroke-width="1" fill="none" fill-rule="evenodd">
        <g id="Generic-Logos-/-Ginto-/-App-Icon">
            <rect id="Background" x="0" y="0" width="89.9520426" height="89.9520426"/>
            <path d="M69.0426288,77.5950266 C63.6394316,74.6056838 57.1811723,73.8543517 45.3516874,73.4067496 C37.2628774,73.1030195 32.7548845,71.2966252 32.7548845,65.9094139 C32.7548845,63.3676732 33.7939609,61.2735346 35.8880995,59.035524 C36.5435169,59.259325 37.1829485,59.4191829 37.374778,59.4671403 C39.7246892,60.0905861 42.3143872,60.3943162 44.9360568,60.3943162 C59.4831261,60.3943162 69.3783304,51.3943162 69.3783304,38.3499112 C69.3783304,25.4174067 59.3552398,16.3055062 44.9360568,16.3055062 C30.5488455,16.3055062 20.4937833,25.4493783 20.4937833,38.3499112 C20.4937833,42.5062167 21.4689165,46.2149201 23.3072824,49.348135 C23.9946714,50.5470693 24.8099467,51.6660746 25.7531083,52.6891652 C25.9769094,52.9449378 26.2166963,53.2007105 26.4724689,53.4404973 C26.7282416,53.6802842 27,53.920071 27.2557726,54.1758437 C27.8952043,54.7193606 28.5346359,55.2309059 29.2380107,55.7264654 C29.3499112,55.8063943 29.5577265,55.9502664 29.8294849,56.1261101 C29.9094139,56.1740675 29.9893428,56.2220249 30.0692718,56.2699822 C30.1172291,56.3019538 30.1811723,56.3499112 30.2451155,56.3818828 C30.3730018,56.4618117 30.5168739,56.5417407 30.6447602,56.6376554 C26.2966252,59.7708703 24.2024867,63.3676732 24.2024867,67.8596803 C24.2024867,70.705151 25.2255773,73.4387211 27.1758437,75.6447602 C27.383659,75.8685613 28.3907638,77.0195382 29.8134991,77.8348135 C31.1243339,78.5701599 32.8987567,79.321492 34.6891652,79.8170515 C36.0959147,80.1847247 37.6625222,80.39254 38.0941385,80.4404973 C40.0603908,80.69627 42.6820604,80.8880995 45.9431616,81.079929 C56.6056838,81.7193606 63.2238011,82.5186501 66.1172291,86.1314387 C66.9325044,87.1385435 67.5079929,88.4973357 67.6998224,89.9680284 L76.1563055,89.9680284 C76.2522202,87.7300178 75.5488455,85.2042629 74.8774423,83.7335702 C73.7744227,81.2078153 71.8880995,79.2255773 69.0426288,77.5950266 Z M31.4760213,45.9271758 C30.2930728,43.7531083 29.6376554,41.1953819 29.6376554,38.3339254 C29.6376554,29.4937833 35.9360568,23.339254 44.9360568,23.339254 C46.8543517,23.339254 48.6767318,23.6269982 50.3072824,24.1225577 C50.8507993,24.2984014 51.3783304,24.5062167 51.8898757,24.7300178 C53.0248668,25.2095915 54.0319716,25.8170515 54.9751332,26.5523979 C55.3907638,26.8721137 55.7904085,27.2238011 56.1740675,27.6234458 C56.3339254,27.7833037 56.4937833,27.9591474 56.6536412,28.1349911 C59.0195382,30.7246892 60.3783304,34.2415631 60.3783304,38.3499112 C60.3783304,47.2060391 54.0959147,53.3445826 44.9360568,53.3445826 C42.8898757,53.3445826 40.9875666,53.0248668 39.2611012,52.4174067 C39.0213144,52.3374778 38.7815275,52.2415631 38.5417407,52.1616341 C38.5417407,52.1616341 38.5417407,52.1616341 38.5257549,52.1456483 C38.2220249,52.017762 37.9023091,51.8738899 37.598579,51.7300178 C37.294849,51.5861456 37.0071048,51.4262877 36.7193606,51.2664298 C35.69627,50.6749556 34.7371226,49.9875666 33.9058615,49.1563055 C33.7460036,48.9964476 33.5701599,48.8206039 33.410302,48.6447602 C33.250444,48.4689165 33.1065719,48.3250444 32.9626998,48.1492007 C32.4191829,47.4618117 31.9076377,46.7264654 31.4760213,45.9271758 Z M69.3783304,3.08525755 C73.3587922,3.08525755 76.0923623,5.77087034 76.0923623,9.60746004 C76.0923623,13.4440497 73.3587922,16.1136767 69.3783304,16.1136767 C65.4618117,16.1136767 62.7282416,13.4600355 62.7282416,9.60746004 C62.7282416,5.75488455 65.4618117,3.08525755 69.3783304,3.08525755 Z" id="Logo" fill="#00A6A0" fill-rule="evenodd"/>
        </g>
    </g>
<script xmlns=""/></svg>